<svg xmlns="http://www.w3.org/2000/svg"  viewBox="0 0 24 24" width="22px" height="22px"><path d="M18.474,3.394C16.543,3.132,14.365,3,12,3S7.457,3.132,5.526,3.394C3.516,3.667,2,5.394,2,7.411v9.179	c0,2.017,1.516,3.744,3.526,4.017C7.457,20.868,9.635,21,12,21s4.543-0.132,6.474-0.394c2.01-0.272,3.526-2,3.526-4.017V7.411	C22,5.394,20.484,3.667,18.474,3.394z M15.977,12.343l-5.172,3.064c-0.359-0.205-0.446-0.254-0.805-0.459V9.052	c0.359-0.205,0.446-0.254,0.805-0.459l5.172,3.064C15.977,11.96,15.977,12.04,15.977,12.343z"/></svg>